<svg width="172" height="172" viewBox="0 0 172 172" fill="none" xmlns="http://www.w3.org/2000/svg">
<rect width="172" height="172" rx="35" fill="#6B7F56"/>
<path d="M138.864 105.32C138.864 120.5 126.973 131 107.619 131H74.2225L72.4515 127.584C77.638 122.398 77.638 122.398 77.638 116.705V57.124C77.638 52.317 77.638 52.317 72.325 46.1185L74.2225 42.45H103.571C121.913 42.45 133.931 50.799 133.931 63.8285C133.931 78.629 121.407 82.5505 121.407 82.5505C121.407 82.5505 138.864 88.6225 138.864 105.32ZM91.553 57.124V86.8515C91.553 90.8995 91.553 91.785 95.9805 86.8515L100.029 82.2975H105.468C116.094 82.2975 119.257 74.075 118.751 63.702C118.245 52.823 110.528 43.968 101.673 43.968C91.553 43.968 91.553 52.317 91.553 57.124ZM106.733 129.482C119.51 129.482 124.19 117.464 123.684 106.332C122.925 88.3695 109.896 83.8155 109.896 83.8155H100.914L97.2455 87.737C91.553 93.809 91.553 95.7065 91.553 108.23V116.705C91.553 125.307 91.553 129.482 106.733 129.482Z" fill="#F5E44F"/>
<path d="M63.064 70.25C44.839 70.25 33.5395 83.615 33.5395 100.625C33.5395 117.513 45.325 132.215 62.4565 132.215C67.195 132.215 72.541 130.514 76.672 127.841L78.2515 131H89.4295V56.5205C89.4295 51.4175 89.4295 51.4175 94.5325 45.95L92.953 42.4265H83.476C76.0645 42.4265 76.0645 45.3425 76.0645 50.9315V70.007C76.0645 73.652 76.0645 73.652 72.9055 72.194C69.625 70.8575 65.8585 70.25 63.064 70.25ZM59.905 130.635C50.3065 128.57 45.568 111.317 48.484 95.765C51.5215 79.241 61.606 70.493 69.9895 72.8015C75.3355 74.2595 76.0645 78.026 76.0645 82.4V115.205C76.0645 125.775 67.8025 132.337 59.905 130.635Z" fill="#F5E44F"/>
</svg>
